<?xml version="1.0" encoding="UTF-8"?>
<svg xmlns="http://www.w3.org/2000/svg" xmlns:svg="http://www.w3.org/2000/svg" xmlns:sodipodi="http://sodipodi.sourceforge.net/DTD/sodipodi-0.dtd" xmlns:rdf="http://www.w3.org/1999/02/22-rdf-syntax-ns#" xmlns:osb="http://www.openswatchbook.org/uri/2009/osb" xmlns:ns="http://ns.adobe.com/SaveForWeb/1.0/" xmlns:inkscape="http://www.inkscape.org/namespaces/inkscape" xmlns:dc="http://purl.org/dc/elements/1.1/" xmlns:cc="http://creativecommons.org/ns#" version="1.1" viewBox="0 0 1750.4 992.1">
  <defs>
    <style>
      .cls-1 {
        fill: none;
        stroke: #000;
        stroke-linejoin: round;
        stroke-width: 3px;
      }

      .cls-2 {
        fill: #999;
        fill-rule: evenodd;
      }

      .cls-3 {
        display: none;
      }
    </style>
  </defs>
  <!-- Generator: Adobe Illustrator 28.7.7, SVG Export Plug-In . SVG Version: 1.2.0 Build 194)  -->
  <g>
    <g id="Ebene_1">
      <sodipodi:namedview id="namedview8241" bordercolor="#666666" borderopacity="1" fit-margin-bottom="0" fit-margin-left="0" fit-margin-right="0" fit-margin-top="0" gridtolerance="10" guidetolerance="10" inkscape:current-layer="layer2" inkscape:cx="1235.4194" inkscape:cy="700.76581" inkscape:pageopacity="0" inkscape:pageshadow="2" inkscape:window-height="850" inkscape:window-maximized="1" inkscape:window-width="1600" inkscape:window-x="0" inkscape:window-y="0" inkscape:zoom="0.44950823" objecttolerance="10" pagecolor="#ffffff" showborder="false" showgrid="false"/>
      <g>
        <path class="cls-2" d="M1170,548.9c-.8-.9-2.3-2-4-3.1.9,1.6,2.2,2.6,4,3.1Z"/>
        <path class="cls-2" d="M455.9,282.8c3.2,1.4,10.5,1.9,13.9,1.1,4.6,1.1,9.6.8,14,2.9,2.3,1.1,1.9,3.9,4.2,5.2,2.6,1.5,6.1.4,8.7,0,7.3-1.4,14.5-2.2,21.9-2.1,1.9,0,4.7,0,6.1-1.5,1-1.2.6-4.9-1.1-5.2-3.6-.7-7.7,2.5-11.3,2.8-2.4.2-1.3-1.9-1.4-3.5,0-3.8-4.2-1.6-6.4-1.7-7.7-.4-15.8-5.2-23.5-2.4-3.7,1.3-6.6,1.9-9.7-1-2-1.9-5.6-2.7-.8-4.6-4.8.6-10,3.2-12.1-3.1h0c.3,1.9,0,3.7-1,5.4-.9-.5-1.7-1-2.6-1.6-.1,2.6-2.3,8,1.1,9.4Z"/>
        <path class="cls-2" d="M124.5,330c.8,1.7,3.2-1.1,3.6,2.3,2.7-3.1,7.4-7.6-.2-7.7-3.5,0-5.4,1.3-3.4,5.4Z"/>
        <path class="cls-2" d="M221.6,265.6c2.9-3.2-2-4.7-4.1-5.9-1.4,3,1.3,5.6,4.1,5.9Z"/>
        <path class="cls-2" d="M178.1,210.7c7,.2,12.1,6.7,17.8,9.9,3.9,2.2,8.2,3,12.3,4.1.3-1.5.7-2.8.9-3.6.9-3.6-2.7-16.1-4.5-23.3,0,0,0,0,0,0-7.6,1.2-12.4-8.8-19-5.1-4.4,2.5-6.9,5.7-10.8,0-1.9,3.8-10.5,8.2-6.3,14.2,1.9,2.8,6.5,3.7,9.6,3.8Z"/>
        <path class="cls-2" d="M154.9,233.9c.6.9,1.2,1.7,1.8,2.6,1.3-1.8,1-2.7-.9-2.6-.3,0-.6,0-.9,0Z"/>
        <path class="cls-2" d="M979.4,951.7s0,0,0,0c.9,1.2,1.9,2.4,2.8,3.7-.6-1.5-1.4-2.8-2.8-3.7Z"/>
        <path class="cls-2" d="M975,861.2c-.1-2.9-1.3-5.6-3.9-7.2,0,.9-.2,1.9-.3,2.8-3.4.1-4.6-3.4-7.5-4.4,2.8,4.6,10,4.5,11.6,8.8Z"/>
        <path class="cls-2" d="M80.1,166.5c-2.5.8-4.9,1.6-7.4,2.5.8,0,1.7.1,3,.4,2.5.4,3.6-1,4.4-2.9Z"/>
        <path class="cls-2" d="M1002.3,975.4c-1,2.4-2.5,2.3-4.2,1.1,4.5,5.5,9.1,10.9,14.2,15.5-2.2-4.2-5.7-8.4-7.1-11.3,1-1.7-.4-2.9-2.9-5.3Z"/>
        <path class="cls-2" d="M1183.5,575.4c.9-2.3,1.1-13.2-2-13.1-.6,0-1.3.4-2.1,1.3.8,1.7,1.2,3.5,1,5.4-.5,2.5,2.5,4.2,3.1,6.4Z"/>
        <path class="cls-2" d="M1273.2,552.3c-.4,0-1.2.3-2.3,1.2.9.2,1.7.3,2.6.5.2-1.1.2-1.7-.3-1.7Z"/>
        <path class="cls-2" d="M1252.8,544.7c.8-.4,1.7-.6,2.6-.5-1.1-.7-2.2-1-3.3-.9-.7,0-1.4.2-2.1.4,1,.3,1.9.7,2.8,1Z"/>
        <path class="cls-2" d="M546.9,278c2.5-1.5,1.7-10.4,1-13.1-1.9,4.6-2.1,8.3-1,13.1Z"/>
        <path class="cls-2" d="M968,853c.4-1.3.3-2.5-.5-3.6h0c-.7.8-1.4,1.6-2.1,2.3.8.6,1.6,1,2.6,1.3Z"/>
        <path class="cls-2" d="M1273.2,627c1.8.1,3.2-.6,4.1-2-1-.8-2.2-1.2-3.2-1.2-1.4,0-2.7.9-3.5,2.5.9.3,1.7.5,2.6.8Z"/>
        <path class="cls-2" d="M1328.8,538.2c-3,0-5.7,3.6-9,2.1-4.2,3.5-7.1,9.6-13.9,8.5-.6,6.3,9-.1,11.2-1.1,2.3-1,4.9-.2,7.2-1.3,3.2-1.5,3.8-6.5,7.6-6.9-1.1-1.1-2.1-1.4-3.1-1.4h0Z"/>
        <path class="cls-2" d="M684.6,404.1c.3.3.6.5.9.7-.3-.2-.6-.4-.9-.7Z"/>
        <path class="cls-2" d="M724,280.8c5.1-1.6,9.3-8.4,13.9-11.3-7.3,0-13.5,7.2-20.4,9.1-6.2,1.7-11.7.6-17.8.4-5.7-.1-1.1,6.1-7.3,5.7-4-.3-9.2,6.3-12.7,2.9.4.9.7,1.9,1,2.8,3.8,10.3,11.8,9.1,19.8,13.1-1.5-4.4,8.1-5.4,10.6-6.3,2.8-1,3.5-3.6,5.5-5.4,1.9-1.7,7.3-1.2,9.7-1.5-2.2-2.5-7.8-7.8-2.2-9.6Z"/>
        <path class="cls-2" d="M1690.5,635.2c12.2-4.1,23.8-13.4,29.4-21.2,8.4-11.6-8.4-42.1-.8-57.3s10.9-37.7,16.5-68.5c3.9-20.9,8.7-49.2,10-70.5.5-7.6-5.2-18.4-20.4-26-15.2-7.6-29.1-10.9-29.1-26.1s-14.3-35.9-11.7-46c1.6-6.2-5.2-14.4-7.5-24.5-1.4-6.4,2.2-15.1.4-20-2.2-6.2-13.5-3.6-17.4-8.9-3.6-4.9-13.5-10.4-10.9-23.1,2.5-12.7,11.7-23.3,20.7-31.4,6-5.3,14.9-8.5,22.8-7.6,9.8,1.1,19.5,7.3,25.4,15.2,6.2,8.4,5.2,19.5,10,28.9,3,5.9,3.9,18.2,10.3,16.8,15.4-3.3,12.9-24.6,10.3-40.2-2.7-16.2-11.7-20.2-20-34.3-1-1.6-18.2-11.8-8-16.9s19.1-4.3,21.1-13c4.3-18.8,4.5-32.9-10.2-45.4-14.6-12.3-39.6-15.1-62.8-20.7-20.2-4.9-36.9-10-53-14.1-10.3-2.6-23.4-11-34.1-14.2-12.3-3.7-22.1-2.2-33.4-6.7-25-9.9-47.5-25-71-38-11.9-6.6-29.9-15.7-43.4-17.9-8.5-1.4-15.2.2-19.9,7.4-4.3,6.5,2.4,5.4,7.4,18.1s1.3,34.1-8.6,34.2c-7,0-9.9-5.5-11.2-16-.9-7.3-.3-19.3-3-23.3-5.8-8.4-12.1-12.6-21.3-17.1-11.7-5.8-19.9-8.2-28.4-6.3-1.8,4.3-5,8-8.2,10.4.4-.4-17.7-1.6-18.8,0-.8,1.2-2,4.7-2.3,3.3-.9-4.4-4.3-5.6-4.8-6.7-.8-1.8-1-4.9-3.1-4.6h0c-4.5,17.8-19.1,26.3-16.6,38.9,2.5,12.7-4.3,27.2,8.4,39.9,6.6,6.6-2.1,9.2,8,15.9,9.5,6.2,36.1,21,42.3,30,6.4,9.3,14.5,18.3,9.2,28.3-8.1,15.1-38,12.7-48.2,17.8-10.1,5.1-21.7,7.9-33,7.6-13.8-.3-20.4-4.2-31.1-1.6-7.9,2-20,11.5-29.7,8.3-.1,0-.3-.1-.4-.1.7,5.6.7,11.2,2.1,16.7.9,3.3,1.7,9.9,4.7,12.1.2.1.3.2.5.3-.4,0-.8-.1-1.2-.2,1,3.5,6.3,12.7,5.4,16.1-1,3.8-8.5,1.1-10.3-.3,2.8-.3,5.6,0,8.3-1-13.2-2-28.7,4-41.1,7.7-10.3,3.1-23.2.1-32.8-4.2-5.1-2.3-11.7-4.7-16.1-8.2-4-3.2-5.7-8.7-10.6-10.8-7.6-3.3-16.6-1.4-24.1-5.3-8.8-4.6-8.2-17.8-12.2-25.8,0,0-.1-.1-.2-.2,0,0,.1,0,.2,0-2.3-7,.4-13.4-.9-20-.9-4.7,7.9-2.4,3.6,1.8,4.2.8,2.7-1.9,3-5.4.2-2.3,3.1-4.3,2.6-6.3-1.3-5.5-2.3-9.5-1.2-15.4,1.2-6.6,1.4-9.4,7.5-13.4,4.3-2.8,12.5-1,15.5,3.1-3.3-7.5-7.5-10-15.7-10.6-3.7-.3-6.3-1.6-8.8-4.3,0-.9-.2-1.9-.2-2.8-.9-.4-1.7-.7-2.6-1-5.4-5.8-9-11.7-13.4-18.3-3-4.6-8.8-11-14.3-12.9-.7-1.5-2.7-2.5-4.5-4.4-3.3-3.4-5.7-7.6-9.4-10.8-3.2-2.8-7.4-5.3-9.7-9-2.5-4-3.7-7.9-7.9-10.5-3-1.8-2.1-8.2.4-10.1-6.6-1.2-2.4-13.9-.4-17.3t0,0s0,0,0,0c-4.8-3-4.4,7.5-4,10.1-4.7-.7-1.3-3-1.4-6.1-.2-3.3-2.5-6.1-4.3-8.7-3-4.2-5.2-6.2-9.7-8.7,0,0-.2,0-.2-.1,0,.1,0,.2,0,.3,2.8,22.6,9.7,41,13,56.4,3,14.1,10.5,2.7,11.1,17.1.5,10.1,7.2,23.3,0,30.4-7.2,7.2-20.3,7.6-30.4,0-10.1-7.6-34.4-5.6-46.4-17.1-4.1-3.9-7.9-15.4-13.1-17.6-16.8-6.9-24.4,9.7-24.7,9.6s-28.8,4.7-31.9,6.8c0,0,0,0,0,0,0,0,0,0,0,0,.4-.2,1-.2,1.6,0-.7,0-1.5.2-2.2.8-.4.3-.7.6-1.1.8-7.6,8.4-3.3,32.1-8.3,42.2-2.2,4.4-6.7-.4-10.8,2.5-20.4,14.2-45.1-.7-53.5,22.6-3.5,9.8-1.3,5.1.2,15.4.9,6.4,2.5,15.2-7.6,17.8-10.1,2.5-26.2,12.4-35.9,16.3-11.6,4.2-15.4,12.1-20.3,13.8-9.5,3.2-14.3-2-27.5,2.9-3.8,1.8-1.5,8.4.7,14.9,3.4-4,7.4-6.5,12.7-3.9,4.5,2.3,9,5.2,14.1,6.2,4.1.7,9.7-4.8,4.2-4.2,3.3-2.5,6-1.9,8.6-5.4,1.9-2.5,4.8-.2,6.1,1.6,3.4,4.5,1.1,6.7-2.3,9.6-3.3,2.9-6.9,5.3-3.6,9.3,1.7,2.2,4.8,5.9,2.6,8.8,0,0,0,0,.1,0-.4,0-.7.3-.7,1,.1,4-2.4,11.2.9,13.9,4.1,3.4,1.1,11.8,1.6,16.4.3,3.1.7,6.6,3.1,8.2,0,0,0,0,0,0,1.9,4.3-4,7.4-6.1,10.1-2.7,3.6,0,8.6-2.3,12.2-4.8,7.5-4.7,19.4-10.3,26.1,0,0,0,0,0,0-1.7,1.8,1.1,5.4-.7,7-2.4,2.2-2.5,7.2-3.1,10.3-1.9,10-3.2,20.3-8.5,29.1.6.4.8,1,.8,1.8,0-.8-.2-1.4-.8-1.8-1.7,3.1-3.9,5.8-6.4,8.2v-.2c-3.6,3.1-8.1,4.9-12.6,6.2-5.1,1.5-10.4-.2-15.1,2.8,1.3-5.4-6-.8-8.5-.6-7.6.7-9.8-5.3-16.3-6.8,6.1,2.9-2.3,6.4-2.3,7.5-3.1-2.9-.9-4-5.6-5.2-4.4-1-.7-6.1-1.7-8.8,3,.2,5.4,3.3,7.6,5.2-2-1.9-3.3-5.1-5.8-6-3-1.1-5.8,1.8-8.6,2.2-6,.9-10.1-6.3-16.4-4.2,8.5.6-9.3,6-10,6.4,2.2-2.4,5.1-4.1,8-5.4-4.4,0-8.5,4.7-12.9,2-.6,2.9-3.1,5.4-5.7,6.7,2-.1,1.6.3,3.1,1-2.6.4-4.1-1.2-6.2-2.8-2.4,2.5-4.8,4.9-7.4,7.1-5.1,4.3-11.8,9-18.8,7.9-7.3-1.2-12.4-6.1-20.2-6.8-2.4-.2-4.8-.3-7.2-.7-2.2-.5-3.1-3.5-5-3.3-2.9.3-5.1.7-8-.2-3.3-1-3.8-4.5-7-5.4-7.6-2-15.1-3.8-23-4.6-7.2-.7-13.1-3.1-20.3-1-4,1.2-11.6,3.5-11.9-3,0,0,0,0-.1.1.5-3.7-4.3-9.9-7.6-10.5-6.1-1.1-12.4.9-18.4-.8-6.1-1.7-10.3-4.7-16.9-5.2-3.4-.3-10.9-1.2-11.2-5.9-.3-5.8,1.4-6.7-5.2-9.3-5.6-2.2-10.7-5-16.6-6.5-5-1.2-10.5-1.1-15.7-.8-5.1.4-8.2,4.3-13.7,4.5-10.5.4-27.2,12.9-30.5,23-1.8,5.5-.5,11.6,1.3,16.9,1.6,4.8,5.3,9,4.1,14.3-2.6,11.6-14.9,21.8-26.5,22.8-10,.9-16.5-8.7-23.4-14.3-8.8-7.1-24.3-12-35.2-14-10.9-2-22-.1-31.1-7.9-5-4.3-7.5-9.4-8.6-15.9-.9-5-1.7-10.4-6.2-13.5-3.8-2.7-9.6-.9-13.9-2.6-4.9-1.9-8.8-5.7-13.7-7.8-5.5-2.3-11.4-2.5-17.1-4.6-6.3-2.3-10.8,1.6-17,2.3-6,.7-12-.4-17.2-3.6-5-3.1-11.2-4.7-15.8-7.9,0,.3,0,.6,0,.9,0-.5-.2-.9-.5-1.2-2.2-2.8-7.2-.1-9.5-2.6,4.4-.4.2-2.9-1.1-5.7-.9-2,1.1-4.4-1.8-5.4-2.1-.8-6.1,6.2-7.5,3.8-.6-1-1.2-5.6-2.1-5.7-2.9-.4-4.1,1.5-7.2.1-2.8-1.3-5-3.6-6.6-6.2-7.4-11.5,4-14.8,11.5-20.7,7.5-5.9,14.4-16.1,12.4-25.9-1.6-7.8-1.4-8-8.2-11.6-4.5-2.4-7.4-8.4-7.1-13.4.4-6.6,11.4-12.2,14.6-18,1.7-3,2.2-6.7-1.5-8.3-1.5-.7-4.8,2.8-5.8,3.6-2.4,2.1-4.9,4.5-7.9,5.7-2.2.9-4.4-1.6-4.5-1.5,1.9-1.7,1.6-4.2-.5-5.7-2.7-1.9,0-2.1-.8-4.1-2.1-4.6-3.5-3.8-8.5-4.9,1.6,2.2,1,3.6-1.8,3.6-.3-2.5,2.9-4.1-.4-5.4-.5-.2-1.1-.3-1.6-.3h0c-2.4-.1-5.2,1.3-7.3,1.9-5.6,1.6-9.8,3.5-13.8,7.7-1.9,2-3.3,1.3-5.6,2-.8.2-1.2.8-1.5,1.5,0-.3,0-.6,0-.9-4.5,1.5-9.6.4-14.3,1.6-2.4.6-9.8,2.4-6.8-2.6-3.5.2-6.1-2.2-9.4-3-.9-.2-1.5-.3-2-.3-2.2,0-1.5,2-3.4,3.6-4.4,3.5-10.9,2.1-15.2-.8-2.1-1.4-10.7-5.3-9.5,1.1.5,2.4-5,3.4-9.1,3.9-2.2,28.5,4.5,59.8.6,88.7-2.9,21.5,37.3,16.3,52.8,31.4,26.9,26.2,50.7,83.7,58.3,96.4s76.1,82.1,111.6,87.2,101.2,4.1,113.8,2.5c10.1-1.2,58.7,5.3,73.9-21.2,2.9-5,13.2-6.8,22.6-12.8,16.9-10.6,38.3-23.7,60.5-16,18.7,6.6,40.9,34.1,56.4,46.5,27.8,22.3,61.4,31.8,94.5,45,47.9,19.2,108.3,19.6,148.5,51.9h0c-2.9-4.7-8.4-6.1-11.5-10.7-3.4-4.9-7.3-8.8-10-14.3-6.8-14-14.1-27.5-21.4-41.3-2.2-4.2-4.6-8.3-6.8-12.5-.9-1.8-4.4-5-4.3-7.1,0-1.6,2.2-3.7,1.1-5.3-1.4-2.1-3-4.2-4-6.5-2-4.8-4-8.9-7.7-12.7-2.8-2.8.9-7.3-3.6-10.7,5.5,4.1.9-3.4-.1-4.7-2.1-2.5-4.8-4.5-7.1-6.8-5.2-5.2-9.4-12.6-13.6-18.7-4.8-7-4.2-15.3-10-22.1-3.4-4,0-11.5,3.3-15,1.9,8.2,5.4,16.2,10.2,23,3.5,5,10.3,9.9,8.9,16.9-1.4,7,8.1,10,11.3,14.7,2.6,3.7,5.2,7.5,8.9,10.1,2.9,2.1,6.5,3.2,9.2,5.6-1.4-4.3,4.2-8.5,4.1-12.9,0-5.1-.1-8.1,1.9-13,3.5-8.3,2.3-21.2,7.8-28.2v-.3c.9-1.5,1.7-3.2,2.3-5-.5,2.9-.8,5.9-.6,8.9,0,0,0,0,.1,0-1.1,4.5.1-.2-1.2,7.9-1.1,6.5.5,13.2-1.4,19.7-.9,3.1-6.1,10.8-2.9,13.7.2-4.5,9.8-2.9,12.2-2.2,5.4,1.5,8.1,8.4,10.5,12.9,8,14.7,19.4,27.2,26.6,42.2,2.4,4.9,9.4,8.1,9,13.6-.2,3.2,5.4,7.6,7.4,10,2.9,3.6,15.6,18.5,6.5,21.8,2.6,3.5,5.5,6.3,7,10.5.7,2,1.8,6.5,4.2,7.2,5.6,1.5,10.2,2.2,14.8,6.6,6.3,6,13.1,11.7,16.5,20.1,1.3,3,2.8,6.5,3.5,9.7.7,3.6,3.6,3.6,4.8,6.9-5.7-4.4-.6,2.1.2,3.4,1.6,2.5,3.2,5,3.8,7.9,1.3,6.5-1.4,12.9-.9,19.4.4,4.9,3.9,9,4.1,13.9.2,4.5-.5,7,2,11.3,4.4,7.4,9.1,17,16.1,22.2,4.2,3.1,8.6,1.3,12.4,5.7,3.1,3.6,7.2,6.9,10.7,10.2,1.4,1.3,3.5,1.5,4.8,3,1.3,1.4.4,3.7,1.3,5.4,1,1.7,3,2,3.9,4,1,2.1,1.5,4.5,2.3,6.7.9,2.4,3.1,8.2,4.4,10.1,1.8,2.6.5,4.8,2.1,7.3,2.7,4.3,5.7,5.8,7.3,11.1,1.3,4.1,5.2,8.9,7.9,12.3,7.2,8.9,16.3,12.2,17,25.3-.4-7.3,6.8,7.8,8.3,8.8,2.9,1.9,4.9,9.6,4.6,12.8,0,.6-.4.8-.4,1.5.1,0,.3-.1.4-.2-1,1.3.2,2.7.7,5.6,1.1,6-1.1,8.7-2.2,14.2-1,5,3.2,9.4,2.8,14.4-1-.9-6.1-1-5.2,1-.2-.4,5.2,2.6,5.2,2.6,2.9,3.1,4,6.2,4.9,10.3,1.9,7.9,2.1,16.6,4.6,24.3,1,3.1,3.5,5.5,4.7,8.5,1.4,3.7.1,7.7,0,11.5-.1,7.5,8.9,13.8,6.4,21.3,3.3.3,5.5-1.6,8.9-.3,3.6,1.4,6,2.6,9.9,1.8,8.1-1.6,11.7-7.2,20.1-2.8-.4-2.3,2-4.6,2.8-1.3,1.4-1.5,2.2-3.3,3.3-5,1.8-2.7,4.7-2.6,7-4.4,5.3-4,5.9-8,13.2-9.7,6.8-1.6,14.1-1.9,21-1.2,4.1.4,10.9-4.3,15-5.5,6.1-1.7,9.1-7,14.5-10,1.7-.9,4-3,5.8-3.5,2,0,3.9.5,5.7,1.4,2,0,4-.2,5.9-.7,13-2.1,15.9-15.5,27.6-21.3,5.4-2.7,10.2-3.3,16-4.4,7.1-1.2,13.1-6,20.1-7.7,4.9-1.2,9.8-2.1,14.6-3.8,4.7-1.7,6.4-5.5,10.4-7.5,3.3-1.7,10.5-1.5,11.5-6,1.2-5.2-2.4-10-.6-15.3,3.8-10.8,17-10.3,25-16.2h0s0,0-.1,0c11.2,0,20.9-10.7,32.1-10.7s6.5-.7,9.7,1.8c1.8,1.4,3.6.3,5.4-.6,3.7-1.8,8.4-5.1,8.6-9.7.3-5.8-2.1-6.7,1.6-11.8,3.9-5.2,6.6-6.3,13.2-6.8,5.5-.4,12.4-.2,15.8-4.8,2.8-3.7,3.6-8.6,4.6-13,2.6-11.3,14.1-14.4,24.5-14.7,6.5-.2,5.6-4.2,4.1-9.6-1.8-6.5-4-11.8-2-18.6,1.5-5.2,1.2-17.8,7-21.3,4.8-3,4.1,4.2,7.9,5.4,4.8,1.4,5.9-7.3,6.7-10.3,3.5-12.8,16.3-19,20.3-31,2.1-6.3,14.4-21.6,3.6-25.9-4.6-1.8-6.4-2-9.9-6-3.3-3.8-5.7-8.6-9-12.6-4.2-4.9-8.1-13.8-15.4-14.6-5.4-.6-10-2.7-15.3-3.8-11.4-2.3-22.6-5.5-30.6-14.4-5.1-5.6-9.2-12.1-12.4-19-1.2-2.7-1.7-3.8-2.7-3.5,2.7-4.7-.6-11.5-1.2-16.8-.4-3.2-2.2-3.9-3.9-4.7-.2,0-.5.1-.7,0-4.2-.8-.1-9.6-2.5-12.7,0,0-.1-.1-.2-.2,0,0,0-.1-.1-.1-.1-.1-.3-.2-.5-.3,0,0,0,0,0,0-.2,0-.4-.2-.6-.2,0,0,0,0-.1,0-.2,0-.4,0-.7,0,0,0,0,0,0,0h0s0,0,0,0c0,0,0,0,0,0-1.8,8.6-5.6,10-12,15.3-5.8,4.7-8.2,13.9-14.3,19-6.2,5.2-6.7,9.2-10.3,16.2-1.3,2.6-4,6.4-7.3,6.8-2.2.2-1.8-3.1-4.6-2.1.9,1.2,1.8,2.4,2.6,3.6-8.9,5.3-15.1,1.2-24.2,1.5-3.3.1-6.7-.3-10-.3-2,0-6.2-2.5-7.8-2.2-1.5.3-2.8,3.3-3.9,4.3-2.5,2.2-5.2,2.7-8.4,2.9-2.5.1-6.7.6-8.5-1.6-1.9-2.3-.4-5.8-2.1-8.2-.9.8-1.8,1.5-2.6,2.3.4-2.5-.3-3.2-2-2.1-7.9,1.8-5.7-6.1-3.3-9.1-1.8-1.2-3.6-.5-4.4,1.6.5-2.1-1.2-2.5-3.2-2.6.9-.4,1.8-.7,2.7-1,5.1-1.5,4.4-4.9,6.4-9.5,1.2-2.7,1.9-5.3.9-8.2-.6-1.8-2.8-1.8-3-3.9-.2-2.1-1.5-4.7-.9-6.8.6-2.4,1.9-4,1.9-6.6,0-3.7-4.3-5.4-6.6-7.8-8.9-9.5-11.3,7.7-11.5,14.2-2.5-6.5-1.5,1.2-1.3,2.6-4-4.1-1.9,4.5-1.8,5.9,1.3,6,2.4,12.8,5,18.5.3.6.6,1.2.9,1.6-3.2-2.1-5.6-6.7-7.3-9.6-2.7-4.5-3.4-8.8-5.7-13.5-2.3-4.6-7.4-7-10.2-11.2.9.9,1.9,1.7,2.8,2.6-.3-1.1-4.7-10.5-5.2-10.6-3.3-.7-2.2-1.4-2.6-5.1,4.7,4.2,5-2.6,4.2-5.8-1.5-5.5-5.6-5.6-5.7-12.3,0,0,0,0,.1,0,0,0,0-.1-.1-.2,0,0,0,0,0,.1-5.6-3.9-13.9-9-12.6-13.7-2.5,7-7.6-5.4-10-6.2,6.3-4.9-10.2-6.4-10.3-6.4.5-3.5-3.5-3-1.8-7,.7.7,1.3,1.5,1.8,2.3,1.5-5.5-8.2-11.7-10.2-16.6-1.4-3.5-2.2-6.1-5-7.3.4.1.7.3,1,.4-2.3-7-7.6-13.1-9.1-20-1.3-5.7-7.1-7.7-12.4-7,1.8-2.3,6.7-10.4,10.1-5.7.3-.4.4-1.2.3-2.1.6.3,1.5.5,2.8.4,7.1-.7-.1-8.8-2.1-11.2.3.6-1.4,3.8-1.9,6.7-1-2.5-2.4-4.9-3.2-5.5-1.7-1.4-3.5-2.4-5.2-3.1,2.4.5,4.3.5,3.5-1.7,1.2,2.4,13.9,4.2,16.3,4.1,1.7.2,3.1-.6,2.3-2.8,13.4,5.5.9-12.1,8.5-11.1-.7-.8-1.4-1.5-2.1-2.3,2.9-1.7,7.1-.7,8,2.8-2.6.9-5.3-.2-8,0,1.7,2.6,7,3.6,7.8,5.3,1.8,3.6,5.9.9,8.7,4.7,4.1,5.7,11.5-11,15.3-1.5,2.2,5.6,5.3,10.2,9.5,14.5,2.5,2.6,10.6,7.9,7.9,12.7-2.1,3.8,3.1,3.3,5.2,3.8,3.1.7,3.8,4.4-.5,4,0,3.6,3.7,4.6,6,6.5,3.4,2.7,1.9,7.4,4.1,10.8,4.5,7.2,6.2,11.9,13.1,17.1,3.1,2.3,8.1.9,11.8,1.8,2.6.6,4.9,2.9,7.4,4,2.8,1.2,14.6,5.5,9.7,10.1,5,2.3,9.7,5.2,14.5,7.8,3.7,2,9.1,3.2,11.6,6.8,4.9,7.3,9.3,5.7,17.2,5.7s12.5,9,19.1,5.7c3.9-2,5.7-6.7,10.3-7.9.6-.2,9.9,1,8.5-1.6-2-4.1,2.5-4.8,6-5.9,4.3-1.2,7.5-5,12.1-5.4,10-.8,19.2,4.8,21,15,1.4,8.1,3.3,21.2,9.6,27.1,3,2.8,13.8,1.4,12.8,6.4,3.7-4.2,4.5.5,7.7,1.8,3.5,1.5,6.6-1.4,10.1-.5,4.4,1.2,7.8-.6,11.9,2.3,3,2.2,5.9,4.4,9.9,3.1,4.7-1.4,12.8-1.9,17,1.4,1.1.9,14.2,1.3,15.3,1.1-2.6-2.3,3.3-5.3,4.2-.3.7,3.6,6.7,3.1,9.3,3.9,2.3.7,17.1,6.7,15.1,0,2.4.9,3.2-.4,3.4-2.1.4,5.1,4.9,8.6,10.9,5.1,1.6-.9,1.6-4.5,4.3-3,1.5.9,3,3.6,4.9,3.7-2.4-7,25.4-5,29.1-3.1-3.7-8.6,10.9-3.9,14.4-4.6-.6-.9-1.2-1.7-1.8-2.6,3.8-1.7,9.4,8.8,16.5,5.2,0,2.2,1.5,3.2,3.6,2.6-4.7-5,13.6-4.8,16.2-5.6,4.8-1.5,9.7.3,14.7-1.3,4.9-1.5,10.2-3.4,14.9-.4-2.4-6-5.3-2-9.8-1.8,1.4-7.8,9.6-3.3,12.4,1,3.7,5.9,5.4,8.1,4.7,15.5-.3,3.7,11.2,4.2,13.4,5.3,4.1,2,1.4,10.1,6.3,13-4.5,3.4,1.5,9.6,5.7,8.8-3.6,2.1.4,6.4,3.6,4.1v4.1c2.9-1.6,6.6,1.1,5.4-3.6,1.4,1.7,3,3.2,4.9,4.4.4-1.8.2-3.5-.7-5.2,1.3,1.9,2.4,3.9,4.1,5.4.6-3.7,1-3.8,1.3-.3,0-1.2.1-2.1.5-2.8-.4.8-.5,1.7-.5,2.8h0c1,1.9.9,3.7-.4,5.5,5.9,2.7,9.8-8.7,15.7-8,0,0,0,0,0,0,3.4-2.2,11.4,1.5,16.7-.3ZM902,91.9s0,0,0,0c1.3-.3,1.7-2,3-2.2h0c0,0,.3,0,.4,0-1.6,0-1.7,2.1-3.3,2.1ZM1001.2,857.6s0,0,0,0c-.5.7-.7.9,0,0ZM1328.9,601.1c0,0,.1,0,.2,0,.2,0,.4.2.6.4-.3-.2-.6-.3-.9-.4,0,0,.1,0,.2,0h0ZM1215.5,626.1c-.4-.9-.8-1.8-1.1-2.4.4.8.8,1.6,1.1,2.4ZM1088.4,442.9c.8-.1,1.6-.2,2.4-.2h0c.6,0,1.2,0,1.7,0,.3,0,.6,0,.9.1-1.8-.2-3.5,0-5,0ZM1491.7,557.8c.4,0,.7,0,1,.1-.6-1.6-.6-2.8-.1-3.8-.4,1-.4,2.2.2,3.8-.4,0-.7-.1-1-.2Z"/>
      </g>
      <g id="layer6" class="cls-3" inkscape:groupmode="layer" inkscape:label="recuadro" sodipodi:insensitive="true">
        <rect id="rect25252" class="cls-1" x="-654.9" y="-320.7" width="2467.8" height="1398.5"/>
      </g>
    </g>
  </g>
</svg>